<svg width="204" height="204" viewBox="0 0 204 204" fill="none" xmlns="http://www.w3.org/2000/svg">
<g clip-path="url(#clip0)">
<path d="M202.068 9.82084L179.756 0.258342C178.774 -0.162408 177.643 -0.0667834 176.747 0.526092C175.851 1.11578 175.312 2.11665 175.312 3.18765V22.3127V95.6252H117.938V73.3127C117.938 64.5247 110.539 57.3752 101.751 57.3752H82.875V47.8127H98.5639C107.352 47.8127 114.75 40.6631 114.75 31.8752V3.18765C114.75 1.42815 113.077 0.000154068 111.314 0.000154068H98.5639C96.8012 0.000154068 95.625 1.42815 95.625 3.18765V28.6877H80.0381C81.6733 25.5002 82.6264 22.6091 82.6264 19.1252C82.6264 8.57772 74.0488 0.000154068 63.5014 0.000154068C52.9539 0.000154068 44.3764 8.57772 44.3764 19.1252C44.3764 23.2498 45.7024 27.062 47.9304 30.189L30.1697 47.9497C27.1607 50.9619 25.5 54.9622 25.5 59.2207C25.5 63.476 27.1607 67.4795 30.1697 70.4885L41.871 82.193C42.4702 82.7923 43.2767 83.127 44.1246 83.127C44.9724 83.127 45.9064 82.7891 46.5024 82.193L51 77.8198V124.313C51 126.072 52.1762 127.5 53.9389 127.5H54.2704C52.2463 130.688 51 133.461 51 137.063C51 140.665 52.2463 143.438 54.2704 146.625H41.4375C32.6496 146.625 25.5 153.775 25.5 162.563C25.5 166.165 26.7463 168.938 28.7704 172.125H15.9375C7.14956 172.125 0 179.275 0 188.063C0 196.851 7.14956 204 15.9375 204H105.188C106.396 204 107.498 203.318 108.037 202.237C108.576 201.157 108.461 199.866 107.734 198.9C103.256 192.927 103.026 184.875 106.934 178.5H130.688C131.896 178.5 132.998 177.818 133.537 176.737C134.076 175.657 133.961 174.366 133.234 173.4C128.756 167.424 128.526 159.375 132.434 153H156.188C157.396 153 158.498 152.318 159.037 151.237C159.576 150.157 159.461 148.866 158.734 147.9C154.256 141.927 154.026 133.875 157.934 127.5H181.688C182.896 127.5 183.998 126.818 184.537 125.737C185.076 124.657 184.961 123.366 184.234 122.4C179.45 116.019 179.45 107.107 184.234 100.725C184.958 99.7593 185.076 98.4652 184.537 97.3878C183.998 96.3073 182.896 95.6252 181.688 95.6252V24.4132L202.068 15.6795C203.241 15.179 204 14.0252 204 12.7502C204 11.4752 203.241 10.3213 202.068 9.82084ZM63.5014 6.37515C70.533 6.37515 76.2514 12.0935 76.2514 19.1252C76.2514 26.1568 70.533 31.8752 63.5014 31.8752C56.4698 31.8752 50.7514 26.1568 50.7514 19.1252C50.7514 12.0967 56.4698 6.37515 63.5014 6.37515ZM51 62.9342L47.2866 59.2207L51 55.5073V62.9342ZM51.6853 45.5591L40.2772 56.9672C39.678 57.5664 39.3433 58.376 39.3433 59.2207C39.3433 60.0654 39.678 60.875 40.2772 61.4743L49.1799 70.377L44.1246 75.4292L34.6768 65.9814C32.8695 64.1741 31.875 61.7739 31.875 59.2207C31.875 56.6675 32.8695 54.2642 34.6768 52.4568L52.4376 34.6961C55.5645 36.9242 59.3768 38.2502 63.5014 38.2502C67.3997 38.2502 71.0239 38.2502 74.052 35.0627H98.5639C100.327 35.0627 102 33.6347 102 31.8752V6.37515H108.375V31.8752C108.375 37.1473 103.836 41.4377 98.5639 41.4377H79.4389C77.6762 41.4377 76.5 42.8657 76.5 44.6252V60.5627C76.5 62.3222 77.6762 63.7502 79.4389 63.7502H101.751C107.024 63.7502 111.562 68.0405 111.562 73.3127V95.6252H102V76.5002C102 74.7407 100.327 73.3127 98.5639 73.3127H69.8764C68.1137 73.3127 66.9375 74.7407 66.9375 76.5002V121.125H57.375V47.8127C57.375 46.5249 56.4761 45.3615 55.284 44.8674C54.0919 44.3733 52.5969 44.6475 51.6853 45.5591ZM79.7704 121.125H73.3125V79.6877H95.625V95.6252H92.4375C83.6496 95.6252 76.5 102.775 76.5 111.563C76.5 115.165 77.7463 117.938 79.7704 121.125ZM15.9375 197.625C10.6654 197.625 6.375 193.335 6.375 188.063C6.375 182.791 10.6654 178.5 15.9375 178.5H41.4375H99.7082C98.8444 181.688 98.2961 181.688 98.0124 184.875H22.3125V191.25H98.0156C98.2993 194.438 98.8444 194.438 99.7114 197.625H15.9375ZM105.188 172.125H41.4375C36.1654 172.125 31.875 167.835 31.875 162.563C31.875 157.291 36.1654 153 41.4375 153H66.9375H125.208C124.344 156.188 123.796 156.188 123.512 159.375H73.3125V165.75H123.516C123.799 168.938 124.344 168.938 125.211 172.125H105.188ZM149.016 140.25C149.299 143.438 149.844 143.438 150.708 146.625H130.688H66.9375C61.6654 146.625 57.375 142.335 57.375 137.063C57.375 131.791 61.6654 127.5 66.9375 127.5H69.8764H92.4375H150.708C149.844 130.688 149.296 130.688 149.016 133.875H121.125V140.25H149.016ZM174.516 114.75C174.799 117.938 175.344 117.938 176.208 121.125H156.188H92.4375C87.1654 121.125 82.875 116.835 82.875 111.563C82.875 106.291 87.1654 102 92.4375 102H98.5639H114.501H176.208C175.344 105.188 174.796 105.188 174.516 108.375H124.312V114.75H174.516ZM181.688 17.4804V8.02309L192.719 12.7502L181.688 17.4804Z" fill="url(#paint0_linear)" fill-opacity="0.7"/>
<path d="M19.125 22.3125H12.75V28.6875H19.125V22.3125Z" fill="#D4078F" fill-opacity="0.7"/>
<path d="M31.875 22.3125H25.5V28.6875H31.875V22.3125Z" fill="#D4078F" fill-opacity="0.7"/>
<path d="M6.375 22.3125H0V28.6875H6.375V22.3125Z" fill="#D4078F" fill-opacity="0.7"/>
<path d="M163.334 19.2206C156.615 17.5408 151.397 12.3197 149.714 5.60044C149.363 4.18519 148.088 3.1875 146.625 3.1875C145.162 3.1875 143.887 4.182 143.533 5.60044C141.853 12.3197 136.635 17.5376 129.916 19.2206C128.494 19.5744 127.5 20.8494 127.5 22.3125C127.5 23.7756 128.494 25.0506 129.916 25.4044C136.635 27.0842 141.853 32.3053 143.533 39.0214C143.887 40.443 145.162 41.4375 146.625 41.4375C148.088 41.4375 149.363 40.443 149.717 39.0246C151.397 32.3053 156.615 27.0874 163.337 25.4076C164.756 25.0506 165.75 23.7756 165.75 22.3125C165.75 20.8494 164.756 19.5744 163.334 19.2206ZM146.625 30.2111C144.62 27.0172 141.92 24.3174 138.726 22.3125C141.92 20.3076 144.62 17.6109 146.625 14.4171C148.63 17.6109 151.33 20.3076 154.52 22.3125C151.33 24.3174 148.63 27.0172 146.625 30.2111Z" fill="url(#paint1_linear)" fill-opacity="0.8"/>
<path d="M114.75 133.875H76.5V140.25H114.75V133.875Z" fill="#AE4FAC" fill-opacity="0.95"/>
<path d="M66.9375 159.375H60.5625V165.75H66.9375V159.375Z" fill="#C350AE"/>
<path d="M54.1875 159.375H47.8125V165.75H54.1875V159.375Z" fill="#C950AE"/>
<path d="M117.938 108.375H111.562V114.75H117.938V108.375Z" fill="#AC4FAC"/>
<path d="M105.188 108.375H98.8125V114.75H105.188V108.375Z" fill="#B14FAC"/>
</g>
<defs>
<linearGradient id="paint0_linear" x1="0" y1="-9.15527e-05" x2="204" y2="-9.15527e-05" gradientUnits="userSpaceOnUse">
<stop stop-color="#D4078F"/>
<stop offset="1" stop-color="#4C0082"/>
</linearGradient>
<linearGradient id="paint1_linear" x1="127.5" y1="3.1875" x2="165.75" y2="3.1875" gradientUnits="userSpaceOnUse">
<stop stop-color="#D4078F"/>
<stop offset="1" stop-color="#4C0082"/>
</linearGradient>
<clipPath id="clip0">
<rect width="204" height="204" fill="white"/>
</clipPath>
</defs>
</svg>
