<svg width="35" height="35" viewBox="0 0 35 35" fill="none" xmlns="http://www.w3.org/2000/svg">
<g clip-path="url(#clip0)">
<path d="M35 17.9019C35 16.7123 34.9016 15.5163 34.6917 14.346H17.851V21.0849H27.4948C27.0947 23.2583 25.8088 25.181 23.926 26.4027V30.7753H29.6795C33.0581 27.7274 35 23.2262 35 17.9019Z" fill="#4285F4"/>
<path d="M17.851 35C22.6663 35 26.7272 33.4503 29.686 30.7753L23.9325 26.4027C22.3317 27.4701 20.2652 28.0746 17.8575 28.0746C13.1996 28.0746 9.2502 24.9945 7.83314 20.8534H1.89594V25.361C4.92686 31.2704 11.1002 35 17.851 35Z" fill="#34A853"/>
<path d="M7.8266 20.8534C7.07871 18.68 7.07871 16.3265 7.8266 14.153V9.64542H1.89595C-0.636379 14.5903 -0.636379 20.4161 1.89595 25.361L7.8266 20.8534Z" fill="#FBBC04"/>
<path d="M17.851 6.92541C20.3964 6.88683 22.8566 7.82565 24.7001 9.54897L29.7975 4.55264C26.5698 1.58185 22.2858 -0.0514378 17.851 4.3778e-06C11.1002 4.3778e-06 4.92686 3.72957 1.89594 9.64542L7.82658 14.153C9.23708 10.0055 13.193 6.92541 17.851 6.92541Z" fill="#EA4335"/>
</g>
<defs>
<clipPath id="clip0">
<rect width="35" height="35" fill="white"/>
</clipPath>
</defs>
</svg>
