<svg id="Layer_1" data-name="Layer 1" xmlns="http://www.w3.org/2000/svg" viewBox="0 0 110 49"><defs><style>.cls-1{fill:#fff;}</style></defs><title>nti_logo_white</title><g id="Logo"><g id="Start"><g id="NTI-Gymnasiet---Logotyp-_RGB_" data-name="NTI-Gymnasiet---Logotyp-(RGB)"><polyline id="Fill-1" class="cls-1" points="38.99 33 38.99 16.98 34 16.98 34 13 48 13 48 16.98 43.01 16.98 43.01 33 38.99 33"/><polyline id="Fill-2" class="cls-1" points="18.95 31.6 15 31.6 15 12 16.05 12 26.02 23.27 26.02 12.43 30 12.43 30 32 28.95 32 18.95 21.15 18.95 31.6"/><polygon id="Fill-3" class="cls-1" points="52 33 56 33 56 13 52 13 52 33"/><path id="Fill-13" class="cls-1" d="M21,3.93V0H0V22C0,37,7.53,41.78,19.81,48.36L21,49V44.55l-.15-.08c-11.14-6-17-9.73-17-22.48V3.93H21"/></g></g></g><path id="A" class="cls-1" d="M90.39,25.37H82.5l3.93-11ZM87.27,13H85.71L78.5,33h1.28L82,26.63h8.79L93.14,33H94.5L87.29,13.07Z"/><polyline id="N" class="cls-1" points="108.81 30.84 98.3 13 97 13 97 33 98.19 33 98.19 15.22 108.67 32.95 108.7 33 110 33 110 13 108.81 13 108.81 30.84"/><g id="L"><polygon id="I" class="cls-1" points="63 33 64 33 64 13 63 13 63 33"/><rect class="cls-1" x="63.5" y="32" width="11.96" height="1"/></g></svg>