<svg width="351" height="283" viewBox="0 0 351 283" fill="none" xmlns="http://www.w3.org/2000/svg">
<g clip-path="url(#clip0)">
<path d="M323.731 152.711H344.008C346.763 152.711 349 154.948 349 157.712C349 160.476 346.763 162.712 344.008 162.712H323.731C320.976 162.712 318.739 160.476 318.739 157.712C318.739 154.948 320.976 152.711 323.731 152.711Z" fill="url(#paint0_linear)" fill-opacity="0.4" stroke="white" stroke-width="4"/>
<path d="M154.65 150.711V152.711H156.65H290.869C293.624 152.711 295.861 154.948 295.861 157.712C295.861 160.476 293.624 162.712 290.869 162.712H6.99189C4.23701 162.712 2 160.476 2 157.712C2 154.948 4.23702 152.712 6.99154 152.712H6.99189H114.118H116.118V150.712V136.892V134.892H114.118H96.9439C86.7722 134.892 78.4899 126.603 78.4899 116.413V78.5782C78.4899 71.1044 84.566 65.0246 92.0251 65.0246C99.4842 65.0246 105.56 71.1044 105.56 78.5782V104.938C105.56 106.507 106.833 107.785 108.406 107.785H114.119H116.119V105.785V51.1882C116.119 40.551 124.765 31.8979 135.384 31.8979C146.003 31.8979 154.649 40.551 154.649 51.1882V77.8541V79.8541H156.649H161.064C162.637 79.8541 163.91 78.5762 163.91 77.0071V50.6474C163.91 43.1736 169.986 37.0937 177.445 37.0937C184.904 37.0937 190.98 43.1736 190.98 50.6474V88.4824C190.98 98.6728 182.697 106.961 172.526 106.961H156.65H154.65V108.961V150.711ZM156.65 89.8552H154.649L154.65 91.8556V94.9608L154.651 96.9603H156.65H172.527C177.201 96.9603 180.996 93.1573 180.996 88.4824V50.6474C180.996 48.6892 179.407 47.0948 177.446 47.0948C175.484 47.0948 173.895 48.6891 173.895 50.6474V77.0078C173.895 84.0917 168.135 89.8552 161.064 89.8552H156.65ZM114.12 124.89H116.119L116.12 122.891V119.786L116.121 117.785H114.12H108.408C101.337 117.785 95.5772 112.022 95.5772 104.937V78.5775C95.5772 76.6193 93.9882 75.025 92.0265 75.025C90.0648 75.025 88.4757 76.6193 88.4757 78.5775V116.413C88.4757 121.086 92.2697 124.89 96.9452 124.89H114.12ZM142.666 152.711H144.666V150.711L144.665 51.1882C144.665 46.0666 140.506 41.8991 135.385 41.8991C130.263 41.8991 126.104 46.0666 126.104 51.1882V150.711V152.711H128.104H142.666Z" fill="url(#paint1_linear)" fill-opacity="0.4" stroke="white" stroke-width="4"/>
<path d="M105.898 220.72H105.899C107.209 220.994 108.355 221.782 109.079 222.91L121.665 242.511C122.183 243.318 122.458 244.257 122.458 245.215V257.116C122.458 259.88 120.221 262.116 117.466 262.116H60.8306C58.0758 262.116 55.8387 259.88 55.8387 257.116C55.8387 254.352 58.0758 252.116 60.8306 252.116H70.6189H72.6189V250.116V243.816C72.6189 242.143 73.4544 240.582 74.8428 239.655H74.8429L102.112 221.454C103.226 220.71 104.59 220.445 105.898 220.72ZM110.474 252.116H112.474V250.116V247.272V246.685L112.157 246.191L104.527 234.307L103.427 232.594L101.733 233.724L83.4931 245.899L82.6034 246.492V247.562V250.116V252.116H84.6034H110.474Z" fill="url(#paint2_linear)" fill-opacity="0.7" stroke="white" stroke-width="4"/>
<path d="M140.54 252.116H149.63C152.384 252.116 154.621 254.353 154.621 257.116C154.621 259.88 152.384 262.116 149.63 262.116H140.54C137.785 262.116 135.548 259.88 135.548 257.116C135.548 254.352 137.785 252.116 140.54 252.116Z" fill="url(#paint3_linear)" fill-opacity="0.7" stroke="white" stroke-width="4"/>
<path d="M237.848 285.085L237.85 285.086L258.826 288.586C261.232 288.988 262.998 291.073 262.997 293.517V314.519C262.997 317.283 260.76 319.519 258.006 319.519H201.37C198.615 319.519 196.378 317.283 196.378 314.519C196.378 311.755 198.615 309.518 201.37 309.518H211.159H213.159V307.518V301.218C213.159 299.451 214.09 297.817 215.607 296.916L234.486 285.716V285.715C235.498 285.115 236.69 284.891 237.848 285.085ZM251.014 309.519H253.014V307.519V299.448V297.754L251.343 297.476L238.727 295.37L238.006 295.25L237.378 295.623L224.123 303.487L223.143 304.069V305.208V307.519V309.519H225.143H251.014Z" fill="url(#paint4_linear)" stroke="white" stroke-width="4"/>
<path d="M225.842 201.014H278.982C281.737 201.014 283.974 203.25 283.974 206.014C283.974 208.778 281.737 211.014 278.982 211.014H225.842C223.088 211.014 220.851 208.778 220.851 206.014C220.851 203.25 223.088 201.014 225.842 201.014Z" fill="url(#paint5_linear)" fill-opacity="0.6" stroke="white" stroke-width="4"/>
<path d="M187.386 201.014H199.972C202.727 201.014 204.964 203.25 204.964 206.014C204.964 208.778 202.727 211.014 199.972 211.014H187.386C184.631 211.014 182.394 208.778 182.394 206.014C182.394 203.25 184.631 201.014 187.386 201.014Z" fill="url(#paint6_linear)" fill-opacity="0.6" stroke="white" stroke-width="4"/>
<path d="M304.852 92.5078C291.794 92.5078 281.177 81.8748 281.177 68.8064C281.177 55.7387 291.794 45.1057 304.852 45.1057C317.91 45.1057 328.527 55.7387 328.527 68.8063L304.852 92.5078ZM304.852 92.5078C317.911 92.5078 328.528 81.8748 328.527 68.8063L304.852 92.5078ZM271.193 68.8071C271.193 50.2232 286.296 35.1053 304.852 35.1053C323.409 35.1053 338.512 50.2232 338.512 68.8071C338.512 87.3911 323.409 102.509 304.852 102.509C286.296 102.509 271.193 87.3911 271.193 68.8071Z" fill="url(#paint7_linear)" fill-opacity="0.3"/>
<path d="M304.852 92.5078C291.794 92.5078 281.177 81.8748 281.177 68.8064C281.177 55.7387 291.794 45.1057 304.852 45.1057C317.91 45.1057 328.527 55.7387 328.527 68.8063M304.852 92.5078L328.527 68.8063M304.852 92.5078C317.911 92.5078 328.528 81.8748 328.527 68.8063M271.193 68.8071C271.193 50.2232 286.296 35.1053 304.852 35.1053C323.409 35.1053 338.512 50.2232 338.512 68.8071C338.512 87.3911 323.409 102.509 304.852 102.509C286.296 102.509 271.193 87.3911 271.193 68.8071Z" stroke="white" stroke-width="4"/>
<path d="M243.639 119.523C241.689 121.476 241.689 124.644 243.64 126.598C244.615 127.574 245.889 128.061 247.168 128.061C248.448 128.061 249.723 127.573 250.698 126.597L267.828 109.447C269.778 107.494 269.779 104.326 267.828 102.373L263.5 99.5L243.639 119.523ZM260.769 102.373C262.719 100.422 265.879 100.423 267.828 102.373L263.5 99.5L260.769 102.373Z" fill="url(#paint8_linear)" fill-opacity="0.3"/>
<path d="M243.639 119.523C241.689 121.476 241.689 124.644 243.64 126.598C244.615 127.574 245.889 128.061 247.168 128.061C248.448 128.061 249.723 127.573 250.698 126.597L267.828 109.447C269.778 107.494 269.779 104.326 267.828 102.373M243.639 119.523L260.769 102.373M243.639 119.523L263.5 99.5M267.828 102.373C265.879 100.423 262.719 100.422 260.769 102.373M267.828 102.373L263.5 99.5M260.769 102.373L263.5 99.5" stroke="white" stroke-width="4"/>
<path d="M307.747 117.109V129.01C307.747 131.774 305.51 134.01 302.755 134.01C300 134.01 297.763 131.774 297.763 129.01V117.109C297.763 114.345 300 112.109 302.755 112.109C305.51 112.109 307.747 114.345 307.747 117.109Z" fill="url(#paint9_linear)" fill-opacity="0.3" stroke="white" stroke-width="4"/>
<path d="M241.225 63.1068H255.908C258.663 63.1068 260.9 65.3431 260.9 68.1071C260.9 70.871 258.663 73.1073 255.908 73.1073H241.225C238.471 73.1073 236.234 70.871 236.234 68.1071C236.234 65.3431 238.471 63.1068 241.225 63.1068Z" fill="url(#paint10_linear)" fill-opacity="0.3" stroke="white" stroke-width="4"/>
</g>
<defs>
<linearGradient id="paint0_linear" x1="316.739" y1="157.563" x2="351" y2="157.563" gradientUnits="userSpaceOnUse">
<stop stop-color="#5C0184"/>
<stop offset="1" stop-color="#4B0082"/>
</linearGradient>
<linearGradient id="paint1_linear" x1="9.41314e-07" y1="95.8707" x2="297.861" y2="95.8707" gradientUnits="userSpaceOnUse">
<stop stop-color="#DD0890"/>
<stop offset="0.0001" stop-color="#DD0890"/>
<stop offset="1" stop-color="#4B0082"/>
</linearGradient>
<linearGradient id="paint2_linear" x1="53.8387" y1="240.881" x2="124.458" y2="240.881" gradientUnits="userSpaceOnUse">
<stop stop-color="#DD0890"/>
<stop offset="0.0001" stop-color="#DD0890"/>
<stop offset="1" stop-color="#4B0082"/>
</linearGradient>
<linearGradient id="paint3_linear" x1="133.548" y1="256.967" x2="156.621" y2="256.967" gradientUnits="userSpaceOnUse">
<stop stop-color="#810387"/>
<stop offset="1" stop-color="#4B0082"/>
</linearGradient>
<linearGradient id="paint4_linear" x1="194.378" y1="301.858" x2="264.997" y2="301.858" gradientUnits="userSpaceOnUse">
<stop stop-color="#DD0890"/>
<stop offset="0.0001" stop-color="#DD0890"/>
<stop offset="1" stop-color="#4B0082"/>
</linearGradient>
<linearGradient id="paint5_linear" x1="218.851" y1="205.865" x2="285.974" y2="205.865" gradientUnits="userSpaceOnUse">
<stop stop-color="#A9058B"/>
<stop offset="1" stop-color="#4B0082"/>
</linearGradient>
<linearGradient id="paint6_linear" x1="180.394" y1="205.865" x2="206.964" y2="205.865" gradientUnits="userSpaceOnUse">
<stop stop-color="#DD0890"/>
<stop offset="0.0001" stop-color="#DD0890"/>
<stop offset="1" stop-color="#B2068C"/>
</linearGradient>
<linearGradient id="paint7_linear" x1="269.193" y1="68.0475" x2="340.512" y2="68.0475" gradientUnits="userSpaceOnUse">
<stop stop-color="#DD0890"/>
<stop offset="0.0001" stop-color="#8F0489"/>
<stop offset="1" stop-color="#4B0082"/>
</linearGradient>
<linearGradient id="paint8_linear" x1="240.176" y1="114.154" x2="271.291" y2="114.154" gradientUnits="userSpaceOnUse">
<stop stop-color="#99048A"/>
<stop offset="1" stop-color="#4B0082"/>
</linearGradient>
<linearGradient id="paint9_linear" x1="295.763" y1="122.784" x2="309.747" y2="122.784" gradientUnits="userSpaceOnUse">
<stop stop-color="#760286"/>
<stop offset="1" stop-color="#4B0082"/>
</linearGradient>
<linearGradient id="paint10_linear" x1="234.234" y1="67.9581" x2="262.9" y2="67.9581" gradientUnits="userSpaceOnUse">
<stop stop-color="#7A0387"/>
<stop offset="1" stop-color="#4B0082"/>
</linearGradient>
<clipPath id="clip0">
<rect width="351" height="283" fill="white"/>
</clipPath>
</defs>
</svg>
